<svg xmlns:xlink="http://www.w3.org/1999/xlink" xmlns="http://www.w3.org/2000/svg" width="null" height="null" viewBox="0 0 392.029 480.081">
							<g id="doctor" transform="translate(-0.029)">
								<g id="Group_25" data-name="Group 25">
									<path id="Path_109" data-name="Path 109" d="M200.031,352c-62.5,0-113.855-62.543-119.453-145.5l-.449-6.566L200.031,168l119.914,31.938-.441,6.574a183.588,183.588,0,0,1-34.672,98.617C262.2,335.352,232.09,352,200.031,352Zm0,0" fill="#1D4388"></path>
									<path id="Path_110" data-name="Path 110" d="M88.031,120a16,16,0,0,1-16-16V24a16,16,0,0,1,16-16h224a16,16,0,0,1,16,16v80a16,16,0,0,1-16,16Zm97.008-50.687a15.857,15.857,0,0,0,29.984,0l1.9-5.312-1.9-5.312a15.857,15.857,0,0,0-29.984,0L183.145,64Zm0,0" fill="#1D4388"></path>
									<path id="Path_111" data-name="Path 111" d="M336.031,472a48.174,48.174,0,1,1,27.457-8.711A48.174,48.174,0,0,1,336.031,472Zm0-64a16.185,16.185,0,1,0,11.609,5.1,15.836,15.836,0,0,0-11.609-5.1Zm0,0" fill="#1D4388"></path>
								</g>
								<path id="Path_112" data-name="Path 112" d="M343.68,368.586a142.671,142.671,0,0,0-35.336-87.2A206.916,206.916,0,0,0,328.031,192V121.762a23.876,23.876,0,0,0,8-17.762V24a24,24,0,0,0-24-24h-224a24,24,0,0,0-24,24v80a23.9,23.9,0,0,0,8,17.762V192a206.6,206.6,0,0,0,19.73,89.2,124.68,124.68,0,0,0-34.7,70.871A40.182,40.182,0,0,0,18.78,383.618L.207,470.32A8,8,0,0,0,8.031,480h24V464H17.93l16.5-77.023A24.128,24.128,0,0,1,57.906,368H62.16a24.128,24.128,0,0,1,23.473,18.977L102.137,464H88.031v16h24a8,8,0,0,0,7.824-9.68l-18.582-86.7a40.137,40.137,0,0,0-28.3-29.961A105.167,105.167,0,0,1,99.816,296.2C123.281,335,159.449,360,200.031,360c34.641,0,67.023-17.793,91.2-50.078,3.2-4.281,6.2-8.8,9.016-13.418A126.764,126.764,0,0,1,327.7,368.688a56.009,56.009,0,1,0,16-.1ZM200.031,344c-58.277,0-106.254-60.754-111.48-138.031l111.48-29.687,111.488,29.7a176.808,176.808,0,0,1-33.086,94.344C257.344,328.5,229.5,344,200.031,344Zm-120-320a8,8,0,0,1,8-8h224a8,8,0,0,1,8,8v80a8,8,0,0,1-8,8h-224a8,8,0,0,1-8-8Zm8,104h224v61.6L202.09,160.273a7.981,7.981,0,0,0-4.113,0L88.031,189.6Zm248,256a39.746,39.746,0,1,1-28.359,11.641A39.746,39.746,0,0,1,336.031,384Zm0,0" fill="#1D4388"></path>
								<path id="Path_113" data-name="Path 113" d="M353.473,407.617A23.745,23.745,0,1,0,360.031,424a23.745,23.745,0,0,0-6.558-16.383ZM336.031,432a8,8,0,1,1,8-8A8,8,0,0,1,336.031,432Zm0,0" fill="#1D4388"></path>
								<path id="Path_114" data-name="Path 114" d="M200.031,88a24,24,0,0,0,22.531-16h65.469V56H222.563A23.858,23.858,0,0,0,177.5,56H112.031V72H177.5a24,24,0,0,0,22.531,16Zm0-32a8,8,0,1,1-8,8A8,8,0,0,1,200.031,56Zm0,0" fill="#1D4388"></path>
							</g>
						</svg>