<?xml version="1.0" encoding="UTF-8"?> <svg xmlns="http://www.w3.org/2000/svg" width="58" height="58" viewBox="0 0 58 58"><g id="_3-STAY_AT_HOME" data-name="3-STAY AT HOME" transform="translate(-3 -3)"><path id="Path_32" data-name="Path 32" d="M53.633,26.226l-15-12.25a1,1,0,0,0-1.266,0l-15,12.25A1,1,0,0,0,23,28h1.425a6.522,6.522,0,0,0-6.175,6.74,7.131,7.131,0,0,0,.653,2.981C15.922,38.5,13,41.741,13,49a1,1,0,0,0,1,1H49a1,1,0,0,0,1-1V28h3a1,1,0,0,0,.633-1.774ZM26,28.2a5.8,5.8,0,0,0-1.4-.2H26ZM24.5,30a3.919,3.919,0,0,1,2.8,1.188,5.084,5.084,0,0,1,0,7.112,3.92,3.92,0,0,1-2.8,1.181,4.52,4.52,0,0,1-4.25-4.74A4.52,4.52,0,0,1,24.5,30Zm-4.383,9.538a5.909,5.909,0,0,0,8.58.189c.028-.027.052-.058.079-.086,3.032.113,4.978,3.263,5.2,8.359H15.022c.225-5.03,2.168-8.27,5.1-8.462ZM36,48V36h4V48ZM49,26a1,1,0,0,0-1,1V48H42V35a1,1,0,0,0-1-1H35a1,1,0,0,0-1,1v5.681A6.542,6.542,0,0,0,30.056,37.8a7.147,7.147,0,0,0,.694-3.063,6.966,6.966,0,0,0-2.05-4.978,6.427,6.427,0,0,0-.733-.614A1.006,1.006,0,0,0,28,29V27.42a.98.98,0,0,0,.09-.4,1,1,0,0,0-1-1h-.03c-.021,0-.039-.012-.06-.012s-.038.011-.058.012H25.8L38,16.041,50.194,26Z" fill="#1d4388"></path><path id="Path_33" data-name="Path 33" d="M32,3A29,29,0,1,0,61,32,29,29,0,0,0,32,3Zm0,56A27,27,0,1,1,59,32,27,27,0,0,1,32,59Z" fill="#1d4388"></path></g></svg> 