<svg xmlns:xlink="http://www.w3.org/1999/xlink" id="Layer_1" enable-background="new 0 0 512 512" height="null" viewBox="0 0 512 512" width="null" xmlns="http://www.w3.org/2000/svg"><g><path d="m325.828 49.83c-5.857-5.858-15.355-5.858-21.213 0s-5.858 15.355 0 21.213l136.334 136.333c5.856 5.857 15.355 5.859 21.213 0 5.858-5.858 5.858-15.355 0-21.213z" fill="#1D4388"></path><path d="m100.126 345.217c-5.857 5.857-5.857 15.354 0 21.211l12.112 12.114-107.845 107.852c-5.858 5.858-5.857 15.356 0 21.213 5.858 5.857 15.356 5.857 21.213 0l107.842-107.849 12.113 12.115c3.985 3.985 13.682 7.532 21.214 0l13.628-13.628-66.657-66.652z" fill="#1D4388"></path><path d="m123.03 276.868c-7.05 7.05-5.047 16.536-.184 21.399l90.889 90.881c5.856 5.856 15.354 5.859 21.212 0l143.286-143.292h-224.191z" fill="#1D4388"></path><path d="m295.521 104.376-111.479 111.479h222.96z" fill="#1D4388"></path><path d="m507.606 95.274-90.889-90.881c-5.857-5.857-15.355-5.857-21.213.001s-5.857 15.355.001 21.213l12.112 12.111-25.737 25.737 66.658 66.657 25.74-25.74 12.117 12.116c5.857 5.857 15.354 5.859 21.213-.001 5.857-5.858 5.856-15.355-.002-21.213z" fill="#1D4388"></path></g></svg>