<svg xmlns:xlink="http://www.w3.org/1999/xlink" xmlns="http://www.w3.org/2000/svg" height="null" version="1.1" viewBox="1 -43 516.66 516" width="null">
							<g id="surface1">
								<path d="M 238.734375 283.867188 L 238.734375 326.351562 L 278.265625 326.351562 L 278.265625 283.867188 C 278.265625 277.839844 283.160156 272.945312 289.1875 272.945312 L 331.671875 272.945312 L 331.671875 233.414062 L 289.1875 233.414062 C 283.160156 233.414062 278.265625 228.519531 278.265625 222.492188 L 278.265625 180.117188 L 238.734375 180.117188 L 238.734375 222.601562 C 238.734375 228.628906 233.839844 233.523438 227.8125 233.523438 L 185.328125 233.523438 L 185.328125 273.054688 L 227.8125 273.054688 C 233.796875 273.054688 238.679688 277.882812 238.734375 283.867188 Z M 238.734375 283.867188 " style="stroke: none; fill-rule: nonzero; fill-opacity: 1;" fill="#1D4388"></path>
								<path d="M 425.808594 76.152344 L 339.96875 76.152344 C 339.96875 75.277344 339.96875 74.511719 339.96875 73.640625 L 339.96875 24.605469 C 339.90625 11.191406 329.027344 0.359375 315.617188 0.359375 L 201.054688 0.359375 C 187.644531 0.359375 176.765625 11.191406 176.703125 24.605469 L 176.703125 73.3125 C 176.703125 74.183594 176.703125 74.949219 176.703125 75.824219 L 91.191406 75.824219 C 47.507812 75.824219 0 99.738281 0 167.011719 L 0 339.019531 C 0 406.292969 47.070312 430.210938 91.191406 430.210938 L 425.808594 430.210938 C 469.492188 430.210938 517 406.292969 517 339.019531 L 517 167.339844 C 517 100.066406 469.820312 76.152344 425.808594 76.152344 Z M 198.652344 24.605469 C 198.707031 23.261719 199.820312 22.199219 201.164062 22.199219 L 315.945312 22.199219 C 317.285156 22.199219 318.402344 23.261719 318.457031 24.605469 L 318.457031 73.3125 C 318.457031 74.699219 317.332031 75.824219 315.945312 75.824219 L 201.054688 75.824219 C 199.667969 75.824219 198.542969 74.699219 198.542969 73.3125 Z M 163.488281 222.492188 C 163.488281 216.464844 168.378906 211.570312 174.410156 211.570312 L 216.890625 211.570312 L 216.890625 169.195312 C 216.890625 163.167969 221.785156 158.277344 227.8125 158.277344 L 289.1875 158.277344 C 295.21875 158.277344 300.109375 163.167969 300.109375 169.195312 L 300.109375 211.679688 L 342.59375 211.679688 C 348.621094 211.679688 353.515625 216.570312 353.515625 222.601562 L 353.515625 283.867188 C 353.515625 289.894531 348.621094 294.789062 342.59375 294.789062 L 300.109375 294.789062 L 300.109375 337.273438 C 300.109375 343.300781 295.21875 348.195312 289.1875 348.195312 L 227.8125 348.195312 C 221.785156 348.195312 216.890625 343.300781 216.890625 337.273438 L 216.890625 294.789062 L 174.410156 294.789062 C 168.378906 294.789062 163.488281 289.898438 163.488281 283.867188 Z M 163.488281 222.492188 " style="stroke: none; fill-rule: nonzero; fill-opacity: 1;" fill="#1D4388"></path>
							</g>
						</svg>