<svg version="1.1" id="Capa_1" xmlns="http://www.w3.org/2000/svg" xmlns:xlink="http://www.w3.org/1999/xlink" x="0px" y="0px" viewBox="0 0 512 512" style="enable-background:new 0 0 512 512;" xml:space="preserve" width="512"  height="512" >
							<g>
								<g>
									<path d="M476.437,442H450v-72.228c14.676-3.992,25.692-17.313,25.994-33.097C476.367,317.158,459.599,301,440.288,301H319.146
									C299.767,301,284,316.701,284,336c0,16.148,11.042,29.771,26,33.791V442h-55V342c0-3.788-2.14-7.25-5.528-8.944L175,295.82V70h60
									v30c0,5.523,4.477,10,10,10h60v40c0,27.57,22.43,50,50,50h50c27.57,0,50-22.43,50-50v-40h22c5.523,0,10-4.477,10-10V68.524
									c14.17-4.28,24.7-17.388,24.994-32.851C512.361,16.351,495.537,0,476.437,0H50C22.43,0,0,22.43,0,50v412c0,27.57,22.43,50,50,50
									h427c18.936,0,34.634-15.398,34.994-34.326C512.36,458.399,495.484,442,476.437,442z M304,336c0-8.271,6.794-15,15.146-15
									c0,0,120.989,0,121.141,0c8.26,0,15.871,6.836,15.71,15.292c-0.155,8.11-6.948,14.708-15.144,14.708H319.146
									C310.795,351,304,344.271,304,336z M363.538,406.153L330,431.099V381L363.538,406.153z M350.667,371.5h59.461l-29.854,22.205
									L350.667,371.5z M380.225,418.668l30.442,22.832h-61.138L380.225,418.668z M396.96,406.22L430,381.645V431L396.96,406.22z
									M235,348.18V442h-60v-20h30c5.523,0,10-4.477,10-10v-40c0-5.523-4.477-10-10-10h-30v-43.82L235,348.18z M175,402v-20h20v20H175z
									M435,150c0,16.542-13.458,30-30,30h-50c-13.036,0-24.152-8.361-28.28-20H395c5.523,0,10-4.477,10-10s-4.477-10-10-10h-70v-30h110
									V150z M477,492H50c-16.542,0-30-13.458-30-30V50c0-16.542,13.458-30,30-30c0,0,426.054,0,426.437,0
									c8.262,0,15.72,6.876,15.561,15.293C491.844,43.403,485.116,50,477,50c-5.523,0-10,4.477-10,10v30H255V70h140
									c5.51,0,10-4.49,10-10s-4.49-10-10-10H165c-5.523,0-10,4.477-10,10v392c0,5.523,4.477,10,10,10c0,0,310.642,0,311.435,0
									c8.119,0,15.718,7.055,15.562,15.293C491.844,485.403,485.116,492,477,492z" fill="#1D4388"></path>
								</g>
							</g>
							<g>
								<g>
									<path d="M435,50c-5.52,0-10,4.49-10,10s4.48,10,10,10c5.51,0,10-4.49,10-10S440.51,50,435,50z" fill="#1D4388"></path>
								</g>
							</g>
							<g>
								<g>
									<path d="M125,192H51c-5.523,0-10,4.477-10,10v100c0,5.523,4.477,10,10,10h74c5.523,0,10-4.477,10-10V202
									C135,196.477,130.523,192,125,192z M115,292H61v-80h54V292z" fill="#1D4388"></path>
								</g>
							</g>
							<g>
							</g>
							<g>
							</g>
							<g>
							</g>
							<g>
							</g>
							<g>
							</g>
							<g>
							</g>
							<g>
							</g>
							<g>
							</g>
							<g>
							</g>
							<g>
							</g>
							<g>
							</g>
							<g>
							</g>
							<g>
							</g>
							<g>
							</g>
							<g>
							</g>
						</svg>