<svg xmlns:xlink="http://www.w3.org/1999/xlink" id="Capa_1" enable-background="new 0 0 512.353 512.353" height="null" viewBox="0 0 512.353 512.353" width="null" xmlns="http://www.w3.org/2000/svg"><path d="m151.176 196.353v155.377c0 46.202 10.922 92.465 31.584 133.79l13.416 26.833 13.416-26.832c20.662-41.323 31.584-87.587 31.584-133.791v-216.418c12.544 9.438 28.129 15.041 45 15.041 41.355 0 75-33.645 75-75s-33.645-75-75-75-75 33.645-75 75v106h-30v-106c0-41.355-33.645-75-75-75s-75 33.645-75 75 33.645 75 75 75c16.871 0 32.456-5.603 45-15.041zm135-166c24.813 0 45 20.187 45 45s-20.187 45-45 45-45-20.187-45-45 20.187-45 45-45zm-180 90c-24.813 0-45-20.187-45-45s20.187-45 45-45 45 20.187 45 45-20.186 45-45 45zm105 231.377c0 30.046-5.135 60.124-15 88.527-9.867-28.407-15-58.48-15-88.527v-140.377h30z" fill="#1D4388"></path><path d="m481.176 121.353c0-22.959-6.38-45.419-18.45-64.949-12.071-19.531-29.306-35.281-49.842-45.549l-21.708-10.855v512.353h90v-265.271l-41.459-20.729 41.459-20.729zm-30 230.729-30-15v-26.459l30 15zm-30 130.271v-111.73l30 15v96.729h-30zm30-190.271-30-15v-26.459l30 15zm0-105-30 15v-149.45c18.924 17.407 30 42.057 30 68.721z" fill="#1D4388"></path></svg>